<?xml version="1.0" encoding="UTF-8"?>
<svg id="Layer_1" data-name="Layer 1" xmlns="http://www.w3.org/2000/svg" viewBox="0 0 960 960">
  <defs>
    <style>
      .cls-1 {
        fill: #fff;
      }

      .cls-1, .cls-2, .cls-3 {
        stroke-width: 0px;
      }

      .cls-2 {
        fill: #5c2682;
      }

      .cls-3 {
        fill: #fab613;
      }
    </style>
  </defs>
  <rect class="cls-2" x="40.84" y="41.33" width="877.43" height="877.43" rx="35.04" ry="35.04"/>
  <path class="cls-1" d="M210.35,395.06v32.42h71.7v29.85h-71.7v58.18h-33.06v-150.28h114.42v29.84h-81.36Z"/>
  <path class="cls-1" d="M438.13,502.41c-4.21,3.33-8.78,6.17-13.63,8.48-5.17,2.43-10.61,4.22-16.21,5.33-6.5,1.28-13.12,1.89-19.75,1.83-10.54.1-20.98-1.95-30.7-6.01-9.16-3.81-17.47-9.39-24.48-16.42-6.94-7.05-12.41-15.4-16.1-24.58-3.9-9.61-5.87-19.9-5.8-30.27v-.43c-.08-10.35,1.89-20.61,5.8-30.2,3.74-9.18,9.2-17.56,16.1-24.68,7.02-7.19,15.42-12.89,24.69-16.75,10.08-4.16,20.91-6.22,31.81-6.06,6.44-.05,12.88.53,19.21,1.71,5.41,1.04,10.69,2.62,15.78,4.72,4.62,1.95,9.01,4.4,13.1,7.3,3.97,2.84,7.71,6,11.16,9.45l-21.07,24.25c-5.38-4.95-11.41-9.13-17.93-12.43-6.39-3.07-13.41-4.61-20.51-4.5-6.03-.06-11.99,1.19-17.5,3.65-5.27,2.36-9.99,5.8-13.85,10.09-3.91,4.37-6.97,9.43-9.01,14.92-2.18,5.8-3.27,11.95-3.22,18.14v.43c-.04,6.23,1.05,12.41,3.22,18.25,2.02,5.51,5.03,10.6,8.88,15.03,7.96,9,19.44,14.09,31.45,13.95,8.59,0,15.86-1.57,21.79-4.72,6.44-3.5,12.39-7.83,17.71-12.88l21.04,21.25c-3.71,4.01-7.72,7.74-12,11.15Z"/>
  <path class="cls-1" d="M594.2,515.51v-98.12l-42.3,64.19h-.89l-41.86-63.54v97.47h-32.59v-150.28h35.63l39.5,63.55,39.5-63.55h35.64v150.28h-32.63Z"/>
  <path class="cls-1" d="M786.46,492.32c-2.66,5.17-6.56,9.59-11.36,12.88-5.4,3.64-11.42,6.26-17.76,7.74-7.56,1.79-15.32,2.65-23.09,2.58h-71.35v-150.28h69.65c15.42,0,27.53,3.51,36.31,10.52,8.79,7.02,13.18,16.46,13.19,28.34v.47c.06,3.85-.48,7.69-1.61,11.38-1,3.14-2.44,6.13-4.26,8.88-1.74,2.6-3.83,4.95-6.22,6.98-2.32,1.99-4.86,3.72-7.57,5.15,8.69,3.3,15.52,7.77,20.52,13.42,4.99,5.65,7.48,13.47,7.48,23.46v.43c.15,6.25-1.2,12.44-3.93,18.06ZM749.42,409.66c0-5.01-1.86-8.84-5.58-11.48-3.72-2.65-9.09-3.97-16.1-3.97h-32.64v31.77h30.46c7.3,0,13.1-1.25,17.39-3.76,4.29-2.5,6.44-6.55,6.44-12.13l.03-.43ZM757.79,469.78c.16-4.69-2.01-9.16-5.8-11.94-3.87-2.93-10.08-4.41-18.65-4.44h-38.19v33.06h39.29c7.3,0,13.03-1.32,17.18-3.97,4.15-2.65,6.22-6.76,6.22-12.34l-.04-.37Z"/>
  <path class="cls-3" d="M787.92,611.8v73.59H174v-38.7c0-19.26,15.61-34.88,34.87-34.88h579.05Z"/>
  <path class="cls-3" d="M174,709.22h613.92v73.59H208.89c-19.26,0-34.88-15.61-34.88-34.87v-38.72Z"/>
</svg>