<?xml version="1.0" encoding="UTF-8"?>
<svg id="Layer_1" data-name="Layer 1" xmlns="http://www.w3.org/2000/svg" viewBox="0 0 960 960">
  <defs>
    <style>
      .cls-1, .cls-2 {
        fill: #0357ee;
      }

      .cls-1, .cls-2, .cls-3 {
        stroke-width: 0px;
      }

      .cls-2 {
        fill-rule: evenodd;
      }

      .cls-3 {
        fill: #fff;
      }
    </style>
  </defs>
  <g>
    <path class="cls-1" d="M134.65,594.4h-.82c-53.36-.13-89.12-11.2-96.54-18.03-7.85-6.97-18.17-43.04-18.17-96.33s10.32-89.36,18.15-96.33c7.43-6.83,43.33-17.9,96.55-18.03h.82c53.36.13,89.12,11.2,96.54,18.03,7.83,6.97,18.15,43.18,18.15,96.33s-10.32,89.36-18.15,96.33c-7.43,6.97-43.19,18.03-96.54,18.03Z"/>
    <path class="cls-3" d="M185.36,486.62l-4.29-51.65h-25.88s-19.72,39.77-21.45,45.18h-.27l-20.78-45.18h-26.01l-4.29,44.79-3.62,45.45h15.82c6.83,0,9.52-2.9,10.06-10.05,0,0,2.69-41.62,2.29-47.69h.27l.81,2.78c1.08,3.69,15.82,39.23,15.82,39.23h19.45s14.76-35.01,16.63-42.01h.27l2.29,47.69c.54,7.13,3.35,10.05,10.06,10.05h15.82l-2.95-38.57h-.03Z"/>
  </g>
  <g>
    <path class="cls-1" d="M851.78,521.46h-20.24v-60.36l11-.06c2.74,0,4.8.63,6.2,1.88,1.48,1.18,2.23,2.83,2.23,4.93v.82l-.12,1.41h.24c4.14-6.97,10.5-10.45,19.08-10.45,14.44,0,21.65,7.55,21.65,22.64v39.19h-11.71c-2.96,0-5.16-.66-6.56-1.99-1.33-1.41-1.99-3.59-1.99-6.58v-26.87c0-5.32-2.23-7.98-6.67-7.98-5.92,0-9.91,2.9-11.95,8.69-.78,2.11-1.17,4.77-1.17,7.98v26.75h0Z"/>
    <path class="cls-2" d="M724.95,491.42c0-9.39,3.23-17.01,9.72-22.87,6.47-5.94,14.55-8.91,24.24-8.91s17.87,2.98,24.34,8.91c6.56,5.88,9.84,13.5,9.84,22.87s-3.27,16.89-9.84,22.76c-6.47,5.79-14.55,8.69-24.22,8.69s-17.72-2.89-24.34-8.69c-6.47-5.88-9.72-13.46-9.72-22.76h-.01ZM745.33,491.42c0,4.29,1.29,7.82,3.87,10.56,2.66,2.66,5.92,3.99,9.84,3.99s7.13-1.33,9.72-3.99c2.66-2.74,3.98-6.26,3.98-10.56s-1.33-7.94-3.98-10.67c-2.57-2.81-5.82-4.23-9.72-4.23s-7.18,1.41-9.84,4.23c-2.57,2.74-3.87,6.29-3.87,10.67Z"/>
    <path class="cls-2" d="M655.38,544.93h20.24v-22.07c0-1.55-.07-3.29-.24-5.17h.24l1.64,1.29c1.26.94,3.17,1.79,5.74,2.59,2.66.85,5.31,1.29,7.97,1.29,8.12,0,14.83-2.89,20.14-8.69,5.31-5.79,7.97-13.41,7.97-22.87s-2.5-17.18-7.49-22.87c-4.92-5.88-11.47-8.81-19.68-8.81-3.83,0-7.22.66-10.18,1.99-2.96,1.33-5.04,2.59-6.2,3.75-1.09,1.09-1.64,1.75-1.64,1.99h-.24v-1.05c0-1.55-.66-2.81-1.99-3.75-1.26-1.02-3.2-1.52-5.85-1.52h-10.73l.31,16.19v67.73ZM678.2,501.98c-2.11-2.81-3.17-6.26-3.17-10.32,0-4.77,1.09-8.45,3.27-11.02,2.18-2.59,5.04-3.87,8.54-3.87s6.35,1.36,8.54,4.1c2.18,2.74,3.27,6.34,3.27,10.79s-1.12,7.91-3.39,10.56c-2.18,2.59-4.99,3.87-8.43,3.87s-6.47-1.36-8.67-4.1h.04Z"/>
    <path class="cls-2" d="M586.74,491.18c0-9.08,2.86-16.58,8.54-22.53,5.77-6.03,13.38-9.03,22.81-9.03,8.67,0,15.44,2.74,20.38,8.21,4.99,5.32,7.49,12.32,7.49,20.99l-.46,6.1h-38.05c.7,3.53,2.3,6.26,4.8,8.21,2.57,1.88,5.65,2.81,9.24,2.81,2.33,0,4.84-.46,7.49-1.41,2.66-1.02,4.8-2.11,6.44-3.29l2.11-1.64,8.07,13.61c-.7.7-2.18,1.84-4.46,3.39-2.33,1.41-4.14,2.39-5.38,2.93-5.23,2.2-10.54,3.29-15.91,3.29-10.14,0-18.23-3.12-24.24-9.39-5.92-6.17-8.9-13.61-8.9-22.29l.02.04ZM608.03,482.62h17.21c0-2.03-.7-3.83-2.11-5.4-1.41-1.55-3.08-2.35-5.04-2.35-5.23,0-8.58,2.59-10.06,7.74Z"/>
    <path class="cls-1" d="M558.1,512.91c0,2.98.66,5.17,1.99,6.58,1.41,1.33,3.59,1.99,6.55,1.99h11.71v-51.86c0-2.98-.7-5.13-2.11-6.44-1.33-1.41-3.47-2.11-6.44-2.11h-11.71v51.86h.01Z"/>
    <path class="cls-1" d="M508.49,521.46h-20.24v-60.43h10.99c2.74,0,4.8.63,6.2,1.88,1.48,1.18,2.23,2.83,2.23,4.93v.82l-.12,1.41h.24c4.14-6.97,10.5-10.45,19.08-10.45,14.44,0,21.65,7.55,21.65,22.64v21.95c-.15,6.64-.06,17.24-.06,17.24h-11.65c-2.96,0-5.14-.66-6.55-1.99-1.33-1.41-1.99-3.59-1.99-6.58v-26.87c0-5.32-2.23-7.98-6.67-7.98-5.92,0-9.91,2.89-11.95,8.69-.78,2.11-1.17,4.77-1.17,7.98v26.75h0Z"/>
    <path class="cls-2" d="M413.6,491.42c0-9.39,3.23-17.01,9.72-22.87,6.47-5.94,14.55-8.91,24.24-8.91s17.87,2.98,24.34,8.91c6.56,5.88,9.84,13.5,9.84,22.87s-3.27,16.89-9.84,22.76c-6.47,5.79-14.55,8.69-24.24,8.69s-17.72-2.89-24.34-8.69c-6.47-5.88-9.72-13.46-9.72-22.76ZM433.96,491.42c0,4.29,1.3,7.82,3.87,10.56,2.66,2.66,5.94,3.99,9.84,3.99s7.15-1.33,9.72-3.99c2.66-2.74,3.98-6.26,3.98-10.56s-1.33-7.94-3.98-10.67c-2.57-2.81-5.82-4.23-9.72-4.23s-7.18,1.41-9.84,4.23c-2.57,2.74-3.87,6.29-3.87,10.67Z"/>
    <path class="cls-1" d="M402.21,437.57l3.93,47.95,2.71,35.81h-14.5c-6.14,0-8.73-2.69-9.22-9.31l-2.08-44.27h-.24c-1.72,6.5-15.23,38.99-15.23,38.99h-17.82s-13.53-33-14.5-36.44l-.73-2.57h-.24c.39,5.64-2.08,44.27-2.08,44.27-.51,6.61-2.96,9.31-9.22,9.31h-14.52l3.3-42.18,3.93-41.56h23.85l19.05,41.94h.24c1.6-5.01,19.68-41.94,19.68-41.94h23.73-.01Z"/>
    <path class="cls-1" d="M906.29,476.89v22.29c0,8.37,3.47,14.7,10.42,19,4.84,2.59,10.76,3.87,17.79,3.87,2.18,0,4.02-.12,5.5-.36v-17.6l-2.69.12c-7.18,0-10.76-2.59-10.76-7.74v-19.59h12.65v-15.83h-12.65v-16.31h-19.68v16.31h-8.31v15.83s7.73,0,7.73,0Z"/>
    <path class="cls-1" d="M578.21,445.42c0,2.15-.34,4.25-.97,6.2-.45,1.36-1.54,2.45-2.9,2.89-1.96.63-4.04.96-6.17.96s-4.23-.34-6.19-.96c-1.36-.43-2.45-1.52-2.9-2.89-.63-1.96-.97-4.05-.97-6.2s.34-4.25.97-6.2c.45-1.36,1.54-2.45,2.9-2.89,1.96-.63,4.04-.96,6.19-.96s4.23.34,6.17.96c1.36.43,2.45,1.52,2.9,2.89.63,1.96.97,4.05.97,6.2Z"/>
    <path class="cls-1" d="M801.02,512.91c0,2.98.66,5.17,1.99,6.58,1.41,1.33,3.59,1.99,6.55,1.99h11.71v-51.86c0-2.98-.7-5.13-2.11-6.44-1.33-1.41-3.47-2.11-6.44-2.11h-11.71v51.86h.01Z"/>
    <path class="cls-1" d="M821.14,445.42c0,2.15-.34,4.25-.97,6.2-.45,1.36-1.54,2.45-2.9,2.89-1.96.63-4.04.96-6.17.96s-4.23-.34-6.19-.96c-1.36-.43-2.45-1.52-2.9-2.89-.63-1.96-.97-4.05-.97-6.2s.34-4.25.97-6.2c.45-1.36,1.54-2.45,2.9-2.89,1.96-.63,4.04-.96,6.19-.96s4.23.34,6.17.96c1.36.43,2.45,1.52,2.9,2.89.63,1.96.97,4.05.97,6.2Z"/>
  </g>
</svg>