<svg version="1.1" id="Layer_1" xmlns:x="ns_extend;" xmlns:i="ns_ai;" xmlns:graph="ns_graphs;" xmlns="http://www.w3.org/2000/svg" xmlns:xlink="http://www.w3.org/1999/xlink" x="0px" y="0px" viewBox="0 0 254.7 89.1" style="enable-background:new 0 0 254.7 89.1;" xml:space="preserve">
 <metadata>
  <sfw xmlns="ns_sfw;">
   <slices>
   </slices>
   <sliceSourceBounds bottomLeftOrigin="true" height="89.1" width="254.7" x="13.3" y="-215.8">
   </sliceSourceBounds>
  </sfw>
 </metadata>
 <g>
  <g>
   <path d="M169.6,85v4.1H167V75.8h2.6v0.6c0.8-0.5,1.7-0.8,2.6-0.8c3,0,5.2,2.3,5.2,5c0,2.7-2.2,5-5.2,5
			C171.3,85.8,170.4,85.5,169.6,85L169.6,85z M169.6,79.5v2.3c0.5,0.9,1.4,1.5,2.4,1.5c1.5,0,2.7-1.2,2.7-2.6c0-1.5-1.2-2.6-2.7-2.6
			C171,78.1,170.1,78.7,169.6,79.5L169.6,79.5z M178.8,73.2c0-0.8,0.6-1.5,1.5-1.5c0.8,0,1.5,0.6,1.5,1.5c0,0.8-0.7,1.5-1.5,1.5
			C179.5,74.7,178.8,74,178.8,73.2C178.8,73.2,178.8,73.2,178.8,73.2z M179,75.8h2.7v9.8H179L179,75.8L179,75.8z M183.2,80.7
			c0-2.7,2.2-5,5.2-5c0.9,0,1.8,0.2,2.7,0.7v-0.5h2.6v9.2c0,2.6-2.3,3.9-5.1,3.9c-1.8,0-3.6-0.5-4.8-1.4l1.1-1.8c1,0.6,2.3,1,3.7,1
			c1.8,0,2.4-0.7,2.5-1.9c-0.8,0.5-1.7,0.8-2.6,0.8C185.3,85.7,183.2,83.5,183.2,80.7L183.2,80.7z M191,81.8v-2.2
			c-0.5-0.9-1.4-1.5-2.5-1.5c-1.5,0-2.7,1.2-2.7,2.6c0,1.5,1.2,2.6,2.7,2.6C189.6,83.3,190.5,82.7,191,81.8L191,81.8z M195.2,80.7
			c0-2.7,2.2-5,5.2-5c0.9,0,1.8,0.2,2.7,0.7v-0.5h2.6v9.2c0,2.6-2.3,3.9-5.1,3.9c-1.9,0-3.6-0.5-4.8-1.4l1.1-1.8c1,0.6,2.3,1,3.7,1
			c1.8,0,2.4-0.7,2.5-1.9c-0.8,0.5-1.7,0.8-2.6,0.8C197.3,85.7,195.2,83.5,195.2,80.7L195.2,80.7z M203,81.8v-2.2
			c-0.5-0.9-1.4-1.5-2.5-1.5c-1.5,0-2.7,1.2-2.7,2.6c0,1.5,1.2,2.6,2.7,2.6C201.6,83.3,202.5,82.7,203,81.8L203,81.8z M209.4,75.8
			l2.6,6.5l2.7-6.5h2.8l-5.8,13.2h-2.5l1.5-3.5l-4.2-9.7H209.4z">
   </path>
   <path d="M217,75.8h2.8l2.6,6.6l2.5-6.6h2.8l-4,9.8H221L217,75.8z M227.9,80.7c0-2.8,2-5,5.2-5c2.9,0,5.2,2.1,5.2,5
			c0,0.2,0,0.5,0,0.7h-7.9c0.1,1.4,1.4,2.3,2.9,2.3c1.2,0,1.9-0.3,2.7-1l1.4,1.5c-1.2,1.2-2.3,1.7-4.2,1.7
			C229.9,85.8,227.9,83.4,227.9,80.7z M230.5,79.5h5.1c-0.3-0.9-1.2-1.7-2.5-1.7C231.5,77.8,230.8,78.6,230.5,79.5z M238.9,84.6
			l1.3-2c1.2,0.8,2.5,1.2,3.9,1.2c1.3,0,2-0.3,2-0.9c0-0.4-0.3-0.6-1-0.8l-2.8-0.6c-2-0.4-3-1.4-3-2.9c0-1.6,1.4-3,4.4-3
			c1.8,0,3.3,0.5,4.4,1.2l-1.2,2c-0.9-0.5-2.1-1-3.3-1c-1.1,0-1.8,0.3-1.8,0.8c0,0.3,0.2,0.5,0.9,0.7l2.3,0.4c2.5,0.5,3.5,1.6,3.5,3
			c0,2.1-2.2,3.2-4.6,3.2C242.1,85.9,240.5,85.5,238.9,84.6L238.9,84.6z M249.1,75.8h1.5v-2.7l2.6-1.6v4.4h1.5v2.2h-1.5v7.6h-2.6
			v-7.6h-1.5V75.8z M160.4,77.6c0-0.6-0.1-1.2-0.3-1.8c-0.7-2.7-2.3-4.8-4.7-6.3c-1.5-1-3.3-1.5-5.1-1.6c-0.8-0.1-1.5,0-2.3,0.1
			c-0.8,0.1-1.6,0.3-2.3,0.6c-3.3,1.2-5.9,3.8-6.8,7.2c-0.2,0.7-0.3,1.4-0.4,2.2c0,0.4,0,0.8,0,1.1v9.3c0,0.5,0.4,0.9,0.9,0.9h3.7
			c0.5,0,0.9-0.4,0.9-0.8v0c0-0.1,0-0.2,0-0.3v-0.2c0,0,0,0,0-0.1v0c0,0,0.1,0,0.1,0c1.4,0.7,2.9,1.2,4.5,1.3c1.2,0.1,2.4,0,3.6-0.3
			c2.4-0.6,4.4-1.9,5.9-3.8c1.3-1.6,2.1-3.5,2.3-5.6C160.5,78.8,160.5,78.2,160.4,77.6z M151.4,83.5c0,0.1-0.1,0.1-0.1,0.1h-3.6
			c-0.1,0-0.1,0-0.1-0.1l0,0v-0.1c0-0.2,0-0.3,0.1-0.5c0-0.1,0-0.1,0.1-0.2c0-0.1,0-0.1,0.1-0.2c0-0.1,0.1-0.1,0.1-0.2l0.1-0.1
			c0-0.1,0.1-0.1,0.1-0.1l0.1-0.1c0.2-0.2,0.5-0.4,0.8-0.5c-0.4-0.2-0.7-0.6-0.7-1.1c0-0.7,0.6-1.3,1.3-1.3c0.4,0,0.7,0.1,0.9,0.4
			c0.2,0.2,0.4,0.5,0.4,0.9c0,0.5-0.3,0.9-0.7,1.1C150.9,81.8,151.5,82.6,151.4,83.5z M157.7,75.8h-16.5c-0.1,0-0.2-0.1-0.2-0.2
			c0,0,0,0,0-0.1c1.2-3.4,4.5-5.8,8.4-5.8s7.2,2.4,8.4,5.8C157.9,75.6,157.9,75.8,157.7,75.8C157.8,75.8,157.7,75.8,157.7,75.8z">
   </path>
  </g>
  <g>
   <path d="M20.4,11.8C6.7,11.8,0,18.1,0,28.7v46.2h11.7V57.1c2.4,2.2,6.4,3.3,12.1,3.3c11.5,0,17.1-6,17.1-16.6V28.7
			C40.8,18.1,34.1,11.8,20.4,11.8z M29.1,42.3c0,5.3-2.9,8.1-8.8,8.1s-8.7-2.7-8.7-8.1V30.1c0-5.3,2.9-8.1,8.7-8.1
			c5.8,0,8.8,2.7,8.8,8.1V42.3z M113.5,11.8c-13,0-19.8,6.8-19.8,16.7v15.2c0,9.9,6.7,16.7,19.7,16.7c12.7,0,19.4-6.7,19.4-16.7
			v-2.6h-11.2v1.4c0,5-2.7,7.6-8.2,7.6c-5.5,0-8.2-2.6-8.2-7.7V29.8c0-5.2,2.8-7.8,8.3-7.8c5.4,0,8.1,2.6,8.1,7.6v1.5h11.2v-2.7
			C132.9,18.6,126.1,11.8,113.5,11.8z M179.1,12.6H166l-9.9,17.4h-5.9V0h-11.7v59.7h11.7V39.8h5.5l10.6,19.8h13.5l-13.9-24.3
			L179.1,12.6z M201.8,11.8c-13.6,0-20.6,6.4-20.6,16.7v15.3c0,10.3,6.9,16.6,20.6,16.6c13.6,0,20.5-5.8,20.5-14.1v-1.5H211v0.4
			c0,3.8-3,5.7-9.1,5.7c-6.3,0-9.4-2.6-9.4-7.8v-3.7h29.8V28.5C222.4,18.1,215.4,11.8,201.8,11.8z M211,31.7h-18.5v-2.4
			c0-5.3,3.1-8,9.3-8c6.1,0,9.2,2.6,9.2,7.9V31.7L211,31.7z M248,49.5c-6.1,0-8.2-1.9-8.2-9.1V21.9h12.8v-9.4h-12.8V2.9h-11.7v38.4
			c0,13.2,4.8,18.5,17.2,18.5h7.6V49.5L248,49.5L248,49.5z M79.1,12.6c-4-0.5-8.1-0.8-12.2-0.8c-1.7-0.1-4.1,0.1-6.4,0.3
			c-2,0.1-4,0.3-6,0.7c-3.6,0.7-7,4.8-7.4,8.9c-0.6,6.4-0.8,12.8-0.6,19.1c0.2,4.6,1.8,8.5,4.8,11.5c1.2,1.2,2.6,2.2,4,3.2
			c2.7,1.7,5.6,3,8.4,4.2c1.8,0.7,3.8,0.9,5.7,0.4c2.9-0.8,5.6-2.2,8.3-3.6c1.9-1,3.6-2.2,5.1-3.7c2.7-2.5,4.5-5.7,5-9.8
			c0.2-1.6,0.2-3.2,0.3-4.7c0.1-5.3-0.2-10.6-0.6-15.9C87,17.1,83.5,13.1,79.1,12.6z M54.8,18.8c0.1-0.2,0.3-0.3,0.5-0.5
			c0.1-0.1,0.3-0.2,0.5-0.2c0.1,0,0.1-0.1,0.2-0.1c0.2-0.1,0.4-0.1,0.5-0.2c0.1,0,0.2-0.1,0.3-0.1c0.2,0,0.4-0.1,0.6-0.1
			c0.1,0,0.2,0,0.4,0c0.1,0,0.3,0,0.4,0c3.1,0.1,6.1,0.2,9.1,0.3c3-0.1,6-0.2,9.1-0.3h0.4c0.1,0,0.2,0,0.4,0c0.2,0,0.5,0.1,0.6,0.1
			c0.1,0,0.2,0.1,0.3,0.1c0.2,0.1,0.4,0.1,0.5,0.2c0.1,0,0.2,0.1,0.2,0.1c0.2,0.1,0.3,0.1,0.5,0.2c0.2,0.1,0.4,0.3,0.5,0.5
			c0.6,0.8,0.7,2,0.3,3.4c-0.1,0.2-0.1,0.5-0.2,0.7c-0.1,0.4-0.2,0.8-0.2,1.3c-0.1,0.4-0.1,0.8-0.1,1.2c0,0.6,0,1.2,0,1.7
			c-0.4,0.1-0.9,0.2-1.4,0.3c-0.1-0.8-0.1-1.6-0.1-2.4c0-0.4,0.1-0.8,0.1-1.2c0.1-0.4,0.1-0.8,0.2-1.3c0-0.1,0-0.2,0.1-0.3
			c0.3-1,0.1-1.9-0.4-2.5c-0.5-0.7-1.4-1-2.6-1c-2.7,0.1-5.5,0.2-8.2,0.3c-2.7-0.1-5.5-0.2-8.2-0.3c-1.2,0-2.1,0.3-2.6,1
			c-0.5,0.6-0.6,1.5-0.4,2.5c0,0.1,0,0.2,0.1,0.3c0.1,0.4,0.2,0.8,0.2,1.3c0.1,0.4,0.1,0.8,0.1,1.2c0,0.8,0,1.6-0.1,2.4
			c-0.5-0.1-1-0.2-1.4-0.3c0-0.6,0-1.2,0-1.7c0-0.4,0-0.8-0.1-1.2c-0.1-0.4-0.1-0.8-0.2-1.3c-0.1-0.3-0.1-0.5-0.2-0.7
			C54.1,20.8,54.1,19.6,54.8,18.8L54.8,18.8L54.8,18.8z M57.8,25.1c1.6,0,2.8-0.3,3.7-0.9c0.6-0.3,1-0.9,1.3-1.5
			c0.2-0.4,0.2-0.9,0.2-1.4c0-0.2-0.1-0.3-0.1-0.5c-0.1-0.2-0.1-0.4-0.2-0.5c1.5,0.1,3.1,0.1,4.7,0.2c1.6-0.1,3.2-0.1,4.7-0.2
			c-0.1,0.2-0.1,0.4-0.2,0.5c0,0.2-0.1,0.3-0.1,0.5c-0.1,0.5,0,1,0.2,1.4c0.2,0.6,0.7,1.2,1.3,1.5c0.9,0.6,2.1,0.9,3.7,0.9
			c0,0.9,0,1.8,0.1,2.7c-3.2,0.6-6.4,0.8-9.6,0.7c-3.2,0.1-6.4-0.1-9.6-0.7C57.8,26.9,57.9,26,57.8,25.1L57.8,25.1L57.8,25.1z
			 M57.5,22.4c0,0,0-0.1,0-0.1c-0.2-0.6-0.1-1.1,0.2-1.5c0.3-0.4,0.9-0.6,1.7-0.6l1.8,0.1c0.2,0.4,0.4,0.9,0.4,1.4
			c0,0.4-0.1,0.7-0.3,1c-0.1,0.2-0.3,0.3-0.5,0.5c-0.6,0.5-1.7,0.7-3,0.7c0,0,0-0.1,0-0.1C57.7,23.2,57.6,22.8,57.5,22.4
			C57.5,22.4,57.5,22.4,57.5,22.4z M76.9,23.7c0,0,0,0.1,0,0.1c-1.4,0-2.4-0.2-3-0.7c-0.2-0.1-0.3-0.3-0.5-0.5
			c-0.2-0.3-0.3-0.7-0.3-1c0-0.5,0.2-1,0.4-1.4l1.8-0.1c0.8,0,1.3,0.2,1.7,0.6c0.3,0.4,0.4,0.9,0.2,1.5c0,0,0,0.1,0,0.1
			C77,22.8,76.9,23.2,76.9,23.7C76.9,23.7,76.9,23.7,76.9,23.7z M83.5,31.2c0,0.9-0.6,1.6-1.4,1.9c-9.7,2.8-20,2.8-29.7,0
			c-0.8-0.3-1.4-1-1.4-1.9v-2.2c0-0.8,0.6-1.2,1.4-1c9.7,2.8,20,2.8,29.7,0c0.8-0.2,1.4,0.2,1.4,1L83.5,31.2L83.5,31.2z">
   </path>
  </g>
  <path d="M114.6,74.8h1.3v3.9c0.3-0.4,0.6-0.7,1-0.9c0.4-0.2,0.8-0.3,1.3-0.3c1,0,1.8,0.3,2.4,1c0.6,0.7,0.9,1.7,0.9,3
		c0,1.3-0.3,2.3-0.9,3.1c-0.6,0.8-1.4,1.2-2.5,1.2c-0.6,0-1.1-0.1-1.5-0.4c-0.3-0.2-0.6-0.5-0.8-0.8v1h-1.2
		C114.6,85.7,114.6,74.8,114.6,74.8z M118,84.7c0.7,0,1.3-0.3,1.6-0.9c0.4-0.6,0.5-1.3,0.5-2.3c0-0.8-0.2-1.5-0.5-2.1
		c-0.4-0.5-0.9-0.8-1.6-0.8c-0.6,0-1.1,0.2-1.6,0.7c-0.5,0.4-0.7,1.2-0.7,2.2c0,0.7,0.1,1.3,0.3,1.8C116.4,84.3,117.1,84.7,118,84.7
		z M128,77.7h1.5c-0.2,0.5-0.6,1.7-1.2,3.5c-0.5,1.4-0.9,2.5-1.2,3.3c-0.8,2-1.3,3.3-1.6,3.7c-0.3,0.4-0.9,0.7-1.6,0.7
		c-0.2,0-0.3,0-0.4,0c-0.1,0-0.2,0-0.4-0.1v-1.2c0.2,0.1,0.4,0.1,0.5,0.1c0.1,0,0.2,0,0.3,0c0.2,0,0.4,0,0.5-0.1
		c0.1-0.1,0.2-0.2,0.3-0.3c0,0,0.1-0.2,0.3-0.6c0.2-0.4,0.3-0.6,0.3-0.8l-2.9-8.2h1.5l2.1,6.4C125.9,84.2,128,77.7,128,77.7z">
  </path>
 </g>
</svg>