<svg version="1.1" id="Layer_1" xmlns:x="ns_extend;" xmlns:i="ns_ai;" xmlns:graph="ns_graphs;" xmlns="http://www.w3.org/2000/svg" xmlns:xlink="http://www.w3.org/1999/xlink" x="0px" y="0px" viewBox="0 0 142 56" style="enable-background:new 0 0 142 56;" xml:space="preserve">
 <style type="text/css">
  .st0{fill-rule:evenodd;clip-rule:evenodd;fill:#38D200;}
	.st1{fill-rule:evenodd;clip-rule:evenodd;fill:#0473EA;}
	.st2{fill-rule:evenodd;clip-rule:evenodd;fill:#FFFFFF;}
 </style>
 <metadata>
  <sfw xmlns="ns_sfw;">
   <slices>
   </slices>
   <sliceSourceBounds bottomLeftOrigin="true" height="55.9" width="141" x="0" y="0">
   </sliceSourceBounds>
  </sfw>
 </metadata>
 <g id="Page-1">
  <g id="sc-logo">
   <path id="Combined-Shape" class="st0" d="M2.4,26.9l30.1,19.8c2.3,1.5,3,4.7,1.5,7c-1.5,2.4-4.7,3-6.9,1.5L3.8,39.9
			c0,0-2.9-1.7-3.6-4.8C-0.7,30.9,2,27.3,2.4,26.9L2.4,26.9L2.4,26.9z M28.9,11.4c2.7,0,4.9,2.2,4.9,5s-2.2,5-4.9,5
			c-1.2,0-2-0.4-2.9-0.9l0,0l-6.2-4.1l6.2-4.1C26.8,11.8,27.7,11.4,28.9,11.4z">
   </path>
   <path id="Combined-Shape_1_" class="st1" d="M4.9,46c1.2,0,2,0.4,2.9,0.9l0,0L14,51l-6.2,4.1C7,55.6,6.1,56,4.9,56
			C2.2,56,0,53.7,0,51C0,48.2,2.2,46,4.9,46z M24.6,2.4c1.5,2.3,0.9,5.5-1.5,7l-10.7,7l18.2,12c0,0,0.1,0,0.2,0.1l0.2,0.1
			c0.9,0.6,3.1,2.3,3.6,4.9c0.9,4.5-2.1,8.2-2.1,8.2L5,23.6c0,0-3.6-2.2-3.6-7.2c0-5,3.6-7.1,3.6-7.1l12.7-8.4
			C20-0.7,23.1,0,24.6,2.4z">
   </path>
   <path id="Combined-Shape_2_" class="st2" d="M139.2,27.1l1.8,1.1v13.4h-1.8v-1.9c-0.9,1.3-2.3,2.1-4,2.1c-3.2,0-5.5-2.4-5.5-5.7
			c0-3.3,2.3-5.8,5.5-5.8c1.7,0,3.1,0.8,4,2.2V27.1z M92.8,27.1l1.8,1.1V38c0,1.5,0.9,2.2,2.1,2.2c0.9,0,1.8-0.2,2.6-0.8v1.8
			c-0.8,0.6-1.8,0.8-2.7,0.8c-2.3,0-3.7-1.1-3.7-4V27.1z M123.3,30.4c3.2,0,5.2,2.4,5.2,5.5c0,0.3,0,0.6-0.1,0.9h-8.6
			c0.3,2,1.8,3.3,4,3.3c1.4,0,2.8-0.4,3.9-1.2v1.7c-1.2,0.8-2.5,1.2-3.9,1.2c-3.4,0-5.9-2.2-5.9-5.6C117.9,32.9,120,30.4,123.3,30.4
			z M77.1,30.4c1.7,0,3.1,0.8,4,2.1v-1.9h1.8v11.1h-1.8v-1.9c-0.9,1.3-2.3,2.1-4,2.1c-3.2,0-5.5-2.4-5.5-5.7
			C71.6,32.8,73.9,30.4,77.1,30.4z M54.5,30.4c1.3,0,2.5,0.4,3.5,1.1v2c-0.9-0.9-2.1-1.4-3.4-1.4c-2.3,0-4,1.6-4,4c0,2.4,1.7,4,4,4
			c1.3,0,2.5-0.4,3.5-1.2v1.9c-1.1,0.7-2.3,1.1-3.7,1.1c-3.4,0-5.7-2.4-5.7-5.7C48.8,32.7,51.2,30.4,54.5,30.4z M104.8,30.4
			c3.2,0,5.2,2.4,5.2,5.5c0,0.3,0,0.6-0.1,0.9h-8.6c0.3,2,1.8,3.3,4,3.3c1.4,0,2.8-0.4,3.9-1.2v1.7c-1.2,0.8-2.5,1.2-3.9,1.2
			c-3.4,0-5.9-2.2-5.9-5.6C99.4,32.9,101.4,30.4,104.8,30.4z M60.1,27.1l1.8,1.1l0,4.3c0.8-1.3,2.1-2.1,3.8-2.1c2.8,0,4.2,2,4.2,4.8
			v6.5h-1.8v-6.2c0-2.2-0.9-3.3-2.8-3.3c-2,0-3.4,1.7-3.4,3.9v5.5h-1.8V27.1z M91.5,30.4v2.1c-2.2-0.3-4,1.2-4,3.9v5.3h-1.8V30.6
			h1.8v2.4C88.4,31.3,89.8,30.4,91.5,30.4z M117.7,30.4v2.1c-2.2-0.3-4,1.2-4,3.9v5.3h-1.8V30.6h1.8v2.4
			C114.6,31.3,116,30.4,117.7,30.4z M135.4,32.1c-2.2,0-3.8,1.7-3.8,4c0,2.3,1.6,4,3.8,4c2.2,0,3.8-1.7,3.8-4
			C139.2,33.8,137.6,32.1,135.4,32.1z M77.2,32.1c-2.2,0-3.8,1.7-3.8,4c0,2.3,1.6,4,3.8,4c2.2,0,3.8-1.7,3.8-4
			C81.1,33.8,79.5,32.1,77.2,32.1z M104.8,32.1c-2,0-3.2,1.4-3.5,3.3h6.8C107.9,33.5,106.7,32.1,104.8,32.1z M123.3,32.1
			c-2,0-3.2,1.4-3.5,3.3h6.8C126.4,33.5,125.2,32.1,123.3,32.1z M96,30.4c0.5-0.3,1.1-0.3,1.5,0l0,0l1.8,1.2l-1.8,1.2
			c-0.5,0.3-1,0.3-1.5,0l0,0l0,0C95.2,32.2,95.2,31,96,30.4z M70.7,14.2c1.7,0,3.1,0.8,4,2.1v-1.9h1.8v11.1h-1.8v-1.9
			c-0.9,1.3-2.3,2.1-4,2.1c-3.2,0-5.5-2.4-5.5-5.7C65.2,16.7,67.5,14.2,70.7,14.2z M60,10.9v10.9c0,1.5,0.9,2.2,2.1,2.2
			c0.9,0,1.8-0.2,2.6-0.8v1.8c-0.8,0.6-1.8,0.8-2.7,0.8c-2.3,0-3.7-1.1-3.7-4V12L60,10.9z M135.4,10.9v14.6h-1.8v-1.9
			c-0.9,1.3-2.3,2.1-4,2.1c-3.2,0-5.5-2.4-5.5-5.7c0-3.3,2.3-5.8,5.5-5.8c1.7,0,3.1,0.8,4,2.2V12L135.4,10.9z M109.5,14.2
			c1.7,0,3.1,0.8,4,2.1v-1.9h1.8v11.1h-1.8v-1.9c-0.9,1.3-2.3,2.1-4,2.1c-3.2,0-5.5-2.4-5.5-5.7C104,16.7,106.3,14.2,109.5,14.2z
			 M52.7,14.2c1.3,0,2.5,0.4,3.3,1v1.9c-1-0.9-2.2-1.4-3.3-1.4c-1.2,0-2,0.5-2,1.4c0,0.7,0.3,1.1,1.2,1.4l2.6,1.1
			c1.4,0.6,2,1.5,2,2.6c0,2.1-1.7,3.4-4.1,3.4c-1.4,0-2.8-0.4-3.7-1.1v-2c1.2,1.1,2.4,1.6,3.7,1.6c1.3,0,2.2-0.6,2.2-1.6
			c0-0.6-0.3-1.1-1.1-1.4L51,20.1c-1.3-0.6-2.1-1.3-2.1-2.8C49,15.4,50.5,14.2,52.7,14.2z M102.1,10.9v14.6h-1.8v-1.9
			c-0.9,1.3-2.3,2.1-4,2.1c-3.2,0-5.5-2.4-5.5-5.7c0-3.3,2.3-5.8,5.5-5.8c1.7,0,3.1,0.8,4,2.2V12L102.1,10.9z M123.9,14.2v2.1
			c-2.2-0.3-4,1.2-4,3.9v5.3h-1.8V14.4h1.8v2.4C120.8,15.1,122.2,14.2,123.9,14.2z M84.9,14.2c2.8,0,4.2,2,4.2,4.8v6.5h-1.8v-6.2
			c0-2.2-0.9-3.3-2.8-3.3c-2,0-3.4,1.7-3.4,3.9v5.5h-1.8V14.4h1.8v1.9C81.9,15,83.2,14.2,84.9,14.2z M70.9,15.9
			c-2.2,0-3.8,1.7-3.8,4c0,2.3,1.6,4,3.8,4c2.2,0,3.8-1.7,3.8-4C74.7,17.6,73.1,15.9,70.9,15.9z M96.4,15.9c-2.2,0-3.8,1.7-3.8,4
			c0,2.3,1.6,4,3.8,4c2.2,0,3.8-1.7,3.8-4C100.3,17.6,98.7,15.9,96.4,15.9z M129.7,15.9c-2.2,0-3.8,1.7-3.8,4c0,2.3,1.6,4,3.8,4
			c2.2,0,3.8-1.7,3.8-4C133.6,17.6,132,15.9,129.7,15.9z M109.7,15.9c-2.2,0-3.8,1.7-3.8,4c0,2.3,1.6,4,3.8,4c2.2,0,3.8-1.7,3.8-4
			C113.5,17.6,111.9,15.9,109.7,15.9z M62.5,14.4c0.5-0.3,1-0.3,1.5,0l0,0l0,0c0.9,0.6,0.9,1.8,0,2.4c-0.5,0.3-1.1,0.3-1.5,0l0,0
			l-1.8-1.2L62.5,14.4z">
   </path>
  </g>
 </g>
</svg>