<svg version="1.1" id="ubn-logo-white" xmlns="http://www.w3.org/2000/svg" xmlns:xlink="http://www.w3.org/1999/xlink" x="0px" y="0px" viewBox="-62.1 -18.5 253.9 97.5" style="enable-background:new -62.1 -18.5 253.9 97.5;" xml:space="preserve">
 <style type="text/css">
  .st0{fill:#FFFFFF;}
 </style>
 <g>
  <path id="Path_124" class="st0" d="M-30.7,49.2c-0.9,2.3-1.6,4.3-1.7,4.5c-0.3,0.6-2.3,0.5-2.9,0.8c-1.2,1.6-1.9,3.5-2.1,5.5
		c1.4,0.3,2.8,0.1,4.1-0.6c1.4-0.8,2.6-1.7,3.8-2.8c2.2-3.5,4.2-7.1,5.9-10.9C-25.9,47.1-28.3,48.2-30.7,49.2">
  </path>
  <path id="Path_125" class="st0" d="M-32.6,25.3c0.7-2.2,1.9-4.2,3.5-6c-1.8,1.1-3.8,1.9-5.9,2.4c-4.9,0.9-10.4-1.2-18.5,3
		c-7.9,4.1-9.1,13.2-8.3,13.7c0.7,0.5,0.2-4.1,10.4-6.4C-44.9,30.7-38.6,28.4-32.6,25.3">
  </path>
  <path id="Path_126" class="st0" d="M50.4-14.3c0.7-1.3,1.1-2.8,1.4-4.2c-1.7,0.1-3.4,0.3-5.1,0.8C46.1-17.6,20.6-23.2,5.3,3
		c7.3-1.4,10-0.9,7.4-0.2C11.5,3-3.6,6.9-8.6,8.3c-11.5,3-22.5,8.9-22.5,21.5c0,5.9,1.6,8.2-1.8,11c-2.2,1.8-9.1,3.4-9.5,4.3
		c-0.3,0.9-5.7,15.1-6,15.9c-0.3,0.7-2.6,0.4-3.4,0.8s-3.1,6.3-2.6,6.8c1.7,0.3,3.5,0.1,5-0.7c1.6-1,3.1-2.1,4.4-3.4
		c1.2-1.1,4.3-9.3,7.1-13.2c1.6-1.9,3.9-3.1,6.3-3.5c12.6-3.5,21-12.8,22.1-21.7c0.3-2.6,0.9-4.5,1.1-1.4c0.1,1.9,0,3.8-0.3,5.7
		c4-1.2,12.3-1,18.9-2.3c3.8-0.6,7.4-1.8,10.8-3.5c7.1-0.8,6.9-0.7,5.2,1.9c-1.1,1.7-3.2,4.8-3.6,5.8c-0.7,1.4-0.1,1.3-0.2,1.9
		c-0.1,0.6-1.2,1.8-2.1,1.2C20.2,35,19.9,35,19.6,35c-0.9,0.1-1.7,0.5-2.3,1.1c-0.8,1.6,0.5,6.1,1.2,5.7c1-0.5,3.8-2.1,5.5-3.1
		c0.7-0.4,8.5-14.8,8.4-16c-0.1-1.3-1.2-3.8-3.3-4.1c-2.9-0.4-11.8-1.4-11.8-1.6c0-0.5,5.9-0.4,11.9,0.2c5.8-7,7.1-18,10-18.3
		c1.2-0.1,4.1,3,7.1,6.5c0.1,0.8,0.3,1.6,0.6,2.3c1,0.7,2.2,1,3.4,1.1c0.7-0.1,3.3-2.3,3.4-3.1C53.8,5.1,50.4-14.3,50.4-14.3">
  </path>
  <path id="Path_127" class="st0" d="M42.9,14c-1-0.1-5.9-0.7-9.3-1.2c-0.8,1.7-1.7,3.3-2.7,4.9c0.8,0.4,1.5,1,2.1,1.7l0.6-0.1
		c6.2-0.5,7.6-0.7,7,0.3l0,0c-0.1,0.3-0.4,0.7-0.7,1.2c-1,1.5-2.8,4.3-3.3,5.2c-0.6,1.2-0.1,1.2-0.2,1.7c-0.1,0.5-1.1,1.6-1.9,1.1
		c-0.2-0.1-0.4-0.2-0.6-0.1c-0.8,0.1-1.5,0.4-2,1C31.2,31,32.3,35,33,34.7c0.9-0.4,3.4-1.8,4.9-2.8c2.6-4.1,5-8.5,7-12.9l0,0
		c0.2-0.4,0.4-0.9,0.5-1.4C45.3,16,44.3,14.6,42.9,14">
  </path>
  <path id="Path_128" class="st0" d="M20.8,60.6c0-1.3,1-2.3,2.2-2.3c0,0,0,0,0.1,0c1.3,0,2.3,1,2.3,2.3c0,0,0,0,0,0v1
		c1.3-2.2,3.7-3.5,6.2-3.5c4.5,0,7.1,3,7.1,7.7v10.7c0,1.2-1,2.3-2.2,2.3c0,0-0.1,0-0.1,0c-1.3,0-2.3-1-2.3-2.2c0,0,0,0,0-0.1v-9.3
		c0-3.1-1.6-4.9-4.3-4.9c-2.5,0-4.5,1.9-4.5,4.4c0,0.2,0,0.4,0,0.6v9.2c0,1.3-1,2.3-2.3,2.3c-1.3,0-2.3-1-2.3-2.3L20.8,60.6z">
  </path>
  <path id="Path_129" class="st0" d="M14.7,76.4c0,1.3-1,2.3-2.2,2.3c0,0,0,0-0.1,0c-1.3,0-2.3-1-2.3-2.3c0,0,0,0,0,0v-1
		c-1.3,2.2-3.7,3.5-6.3,3.5c-4.5,0-7.1-3-7.1-7.6V60.6c0-1.2,1-2.2,2.2-2.3c0,0,0.1,0,0.1,0c1.2,0,2.3,1,2.3,2.2c0,0,0,0,0,0.1v9.3
		c0,3.1,1.6,4.9,4.3,4.9c2.5,0,4.5-1.9,4.5-4.4c0-0.2,0-0.4,0-0.6v-9.2c0-1.3,1-2.3,2.3-2.3c1.3,0,2.3,1,2.3,2.3L14.7,76.4z">
  </path>
  <path id="Path_130" class="st0" d="M44.9,60.6c0-1.3,1-2.3,2.2-2.3c0,0,0,0,0.1,0c1.3,0,2.3,1,2.3,2.3c0,0,0,0,0,0v15.8
		c0,1.3-1.1,2.3-2.4,2.2c-1.2,0-2.2-1-2.2-2.2L44.9,60.6z">
  </path>
  <path id="Path_131" class="st0" d="M54.8,68.7L54.8,68.7c0.1-6,5-10.6,10.9-10.5c5.7,0.1,10.2,4.7,10.4,10.3v0.1
		c0,5.8-4.7,10.4-10.5,10.4c-0.1,0-0.2,0-0.2,0c-5.7,0.1-10.5-4.4-10.6-10.1C54.8,68.8,54.8,68.7,54.8,68.7 M71.5,68.7L71.5,68.7
		c0.1-3.5-2.5-6.4-5.9-6.5c-0.1,0-0.1,0-0.2,0c-3.3,0-6,2.7-6,6c0,0.1,0,0.3,0,0.4v0.1c-0.1,3.4,2.5,6.3,5.9,6.4c0.1,0,0.1,0,0.2,0
		c3.3,0,6-2.6,6.1-5.9C71.5,68.9,71.5,68.8,71.5,68.7L71.5,68.7z">
  </path>
  <path id="Path_132" class="st0" d="M81.1,60.6c0-1.3,1-2.3,2.2-2.3c0,0,0,0,0.1,0c1.3,0,2.3,1,2.3,2.3c0,0,0,0,0,0v1
		c1.3-2.2,3.7-3.5,6.2-3.5c4.5,0,7.1,3,7.1,7.7v10.7c0,1.2-1,2.3-2.2,2.3c0,0-0.1,0-0.1,0c-1.3,0-2.3-1-2.3-2.2c0,0,0,0,0-0.1v-9.3
		c0-3.1-1.6-4.9-4.3-4.9c-2.5,0-4.5,1.9-4.5,4.4c0,0.2,0,0.4,0,0.6v9.2c0,1.3-1,2.3-2.3,2.3c-1.3,0-2.3-1-2.3-2.3L81.1,60.6z">
  </path>
  <path id="Path_133" class="st0" d="M106.1,54.2c0-0.5,0.3-0.9,0.8-0.9c0,0,0.1,0,0.1,0c0.5,0,0.9,0.4,0.9,0.9c0,0,0,0,0,0.1v9.1
		c1.6-2.9,4.6-4.7,8-4.8c5.3,0.1,9.5,4.5,9.4,9.8c0,0.1,0,0.2,0,0.3v0.1c0.3,5.3-3.9,9.9-9.2,10.1c-0.1,0-0.1,0-0.2,0
		c-3.3,0-6.3-1.8-8-4.6v3.4c0,0.5-0.4,0.9-0.9,0.9c0,0,0,0,0,0c-0.5,0-0.9-0.4-0.9-0.9c0,0,0,0,0,0V54.2z M123.3,68.7L123.3,68.7
		c0.3-4.4-2.9-8.1-7.2-8.4c-0.1,0-0.3,0-0.4,0c-4.5,0.1-8,3.8-7.9,8.3c0,0,0,0,0,0v0.1c-0.1,4.5,3.4,8.2,7.8,8.3c0,0,0,0,0.1,0
		c4.2,0,7.6-3.3,7.6-7.5C123.4,69.2,123.4,69,123.3,68.7L123.3,68.7z">
  </path>
  <path id="Path_134" class="st0" d="M129.3,72.7L129.3,72.7c0-4.1,3.4-6.4,8.4-6.4c2.2,0,4.3,0.3,6.4,0.8v-0.8
		c0-3.9-2.4-5.9-6.4-5.9c-1.9,0-3.8,0.4-5.5,1.3c-0.1,0.1-0.3,0.1-0.4,0.1c-0.5,0-0.9-0.4-0.9-0.9c0-0.4,0.2-0.7,0.5-0.8
		c2-0.9,4.2-1.4,6.4-1.4c2.2-0.1,4.4,0.6,6.1,2.1c1.4,1.5,2.1,3.4,2,5.5v11.2c0,0.5-0.4,0.9-0.9,1c-0.5,0-0.9-0.4-1-0.9
		c0,0,0-0.1,0-0.1v-2.4c-1.7,2.4-4.5,3.8-7.4,3.7C133.2,78.7,129.3,76.7,129.3,72.7 M144.2,71v-2.2c-2.1-0.6-4.3-0.9-6.6-0.9
		c-4.1,0-6.4,1.8-6.4,4.5v0.1c0,2.8,2.6,4.4,5.6,4.4C140.8,77,144.2,74.6,144.2,71L144.2,71z">
  </path>
  <path id="Path_135" class="st0" d="M152.5,59.8c0-0.5,0.4-0.9,0.9-1c0.5,0,0.9,0.4,1,0.9c0,0,0,0.1,0,0.1v2.8
		c1.3-2.6,4.1-4.2,7-4.1c4.1-0.2,7.5,2.9,7.7,7c0,0.3,0,0.7,0,1v11c0,0.5-0.3,0.9-0.8,0.9c0,0-0.1,0-0.1,0c-0.5,0-0.9-0.4-0.9-0.9
		c0,0,0,0,0-0.1V66.8c0.4-3.2-1.9-6.2-5.2-6.6c-0.3,0-0.6-0.1-1,0c-3.7,0-6.7,2.9-6.7,6.5c0,0.1,0,0.2,0,0.4v10.4
		c0,0.5-0.3,0.9-0.8,0.9c0,0-0.1,0-0.1,0c-0.5,0-0.9-0.4-0.9-0.9c0,0,0,0,0-0.1V59.8z">
  </path>
  <path id="Path_136" class="st0" d="M176.1,54.2c0-0.5,0.4-0.9,0.9-0.9c0,0,0,0,0,0c0.5,0,0.9,0.4,0.9,0.9c0,0,0,0,0,0v17.1
		l11.9-12.3c0.2-0.2,0.4-0.3,0.6-0.3c0.5,0,0.9,0.4,0.9,0.8c0,0,0,0,0,0c0,0.2-0.1,0.5-0.3,0.6l-7.1,7.2l7.6,9.4
		c0.2,0.2,0.3,0.4,0.3,0.7c0,0.5-0.4,0.9-0.8,0.9c0,0-0.1,0-0.1,0c-0.3,0-0.6-0.2-0.8-0.4l-7.4-9.2l-4.7,4.7v3.9
		c0,0.5-0.3,0.9-0.8,0.9c0,0-0.1,0-0.1,0c-0.5,0-0.9-0.4-0.9-0.9c0,0,0,0,0-0.1V54.2z">
  </path>
 </g>
</svg>